<svg xmlns="http://www.w3.org/2000/svg" viewBox="0 0 500 150" width="500" height="150">
  <defs>
    <linearGradient id="tg1" x1="0%" y1="0%" x2="100%" y2="100%">
      <stop offset="0%" style="stop-color:#ff6b35;stop-opacity:1" />
      <stop offset="50%" style="stop-color:#ff4444;stop-opacity:1" />
      <stop offset="100%" style="stop-color:#cc2233;stop-opacity:1" />
    </linearGradient>
    <linearGradient id="tg2" x1="0%" y1="0%" x2="100%" y2="0%">
      <stop offset="0%" style="stop-color:#444;stop-opacity:1" />
      <stop offset="60%" style="stop-color:#ff6b35;stop-opacity:1" />
      <stop offset="100%" style="stop-color:#ff4444;stop-opacity:1" />
    </linearGradient>
    <linearGradient id="tg3" x1="0%" y1="0%" x2="100%" y2="0%">
      <stop offset="0%" style="stop-color:#ff6b35;stop-opacity:1" />
      <stop offset="100%" style="stop-color:#ff4444;stop-opacity:1" />
    </linearGradient>
    <filter id="glow">
      <feGaussianBlur stdDeviation="2" result="blur"/>
      <feMerge>
        <feMergeNode in="blur"/>
        <feMergeNode in="SourceGraphic"/>
      </feMerge>
    </filter>
    <filter id="needleGlow">
      <feGaussianBlur stdDeviation="1.5" result="blur"/>
      <feMerge>
        <feMergeNode in="blur"/>
        <feMergeNode in="SourceGraphic"/>
      </feMerge>
    </filter>
  </defs>

  <!-- Dark background -->
  <rect width="500" height="150" rx="14" fill="#0a0a1a"/>

  <!-- Tachometer -->
  <g transform="translate(75, 90)">
    <!-- Outer ring subtle -->
    <path d="M-52,-8 A55,55 0 0,1 52,-8" fill="none" stroke="#1a1a2e" stroke-width="12" stroke-linecap="round"/>

    <!-- Background arc -->
    <path d="M-48,-6 A50,50 0 0,1 48,-6" fill="none" stroke="#222" stroke-width="8" stroke-linecap="round"/>

    <!-- Colored arc (gradient from grey to orange to red) -->
    <path d="M-48,-6 A50,50 0 0,1 48,-6" fill="none" stroke="url(#tg2)" stroke-width="8" stroke-linecap="round"/>

    <!-- Major tick marks -->
    <line x1="-44" y1="-20" x2="-37" y2="-16" stroke="#555" stroke-width="2.5" stroke-linecap="round"/>
    <line x1="-32" y1="-40" x2="-27" y2="-34" stroke="#666" stroke-width="2.5" stroke-linecap="round"/>
    <line x1="-10" y1="-50" x2="-8" y2="-43" stroke="#777" stroke-width="2.5" stroke-linecap="round"/>
    <line x1="14" y1="-48" x2="12" y2="-41" stroke="#999" stroke-width="2.5" stroke-linecap="round"/>
    <line x1="34" y1="-36" x2="29" y2="-31" stroke="#ff6b35" stroke-width="2.5" stroke-linecap="round"/>
    <line x1="46" y1="-16" x2="39" y2="-13" stroke="#ff4444" stroke-width="2.5" stroke-linecap="round"/>

    <!-- Minor tick marks -->
    <line x1="-39" y1="-30" x2="-34" y2="-26" stroke="#333" stroke-width="1.5"/>
    <line x1="-22" y1="-46" x2="-19" y2="-40" stroke="#444" stroke-width="1.5"/>
    <line x1="2" y1="-50" x2="2" y2="-43" stroke="#555" stroke-width="1.5"/>
    <line x1="25" y1="-43" x2="22" y2="-37" stroke="#666" stroke-width="1.5"/>
    <line x1="42" y1="-26" x2="36" y2="-22" stroke="#ff5533" stroke-width="1.5"/>

    <!-- RPM numbers -->
    <text x="-40" y="-5" font-family="'Rajdhani', sans-serif" font-size="8" fill="#555" text-anchor="middle">2</text>
    <text x="-30" y="-26" font-family="'Rajdhani', sans-serif" font-size="8" fill="#666" text-anchor="middle">4</text>
    <text x="-6" y="-36" font-family="'Rajdhani', sans-serif" font-size="8" fill="#777" text-anchor="middle">6</text>
    <text x="20" y="-34" font-family="'Rajdhani', sans-serif" font-size="8" fill="#999" text-anchor="middle">8</text>
    <text x="38" y="-20" font-family="'Rajdhani', sans-serif" font-size="8" fill="#ff6b35" text-anchor="middle">10</text>

    <!-- Redline zone highlight -->
    <path d="M34,-36 A50,50 0 0,1 48,-6" fill="none" stroke="#ff4444" stroke-width="10" stroke-linecap="round" opacity="0.15"/>

    <!-- Needle pointing to redline -->
    <line x1="0" y1="2" x2="32" y2="-30" stroke="#ff4444" stroke-width="3" stroke-linecap="round" filter="url(#needleGlow)"/>

    <!-- Center hub -->
    <circle cx="0" cy="0" r="7" fill="url(#tg1)"/>
    <circle cx="0" cy="0" r="4" fill="#0a0a1a"/>
    <circle cx="0" cy="0" r="2" fill="#ff4444"/>

    <!-- x1000 RPM label -->
    <text x="0" y="18" font-family="'Inter', sans-serif" font-size="6" fill="#444" text-anchor="middle">x1000 rpm</text>
  </g>

  <!-- Main text -->
  <text x="150" y="55" font-family="'Rajdhani', 'Segoe UI', sans-serif" font-weight="300" font-size="24" fill="#888" letter-spacing="5">SIM</text>
  <text x="150" y="98" font-family="'Rajdhani', 'Segoe UI', sans-serif" font-weight="700" font-size="48" fill="#ffffff" letter-spacing="3">RACING</text>

  <!-- HUB badge -->
  <rect x="388" y="60" width="85" height="42" rx="8" fill="url(#tg1)"/>
  <text x="430" y="88" font-family="'Rajdhani', sans-serif" font-weight="700" font-size="26" fill="#ffffff" text-anchor="middle" letter-spacing="4">HUB</text>

  <!-- Subtle accent line -->
  <rect x="150" y="105" width="220" height="2" rx="1" fill="url(#tg3)" opacity="0.3"/>

  <!-- Tagline -->
  <text x="150" y="128" font-family="'Inter', sans-serif" font-weight="400" font-size="11" fill="#555" letter-spacing="3">League Manager</text>
</svg>
